<svg xmlns:mydata="http://www.w3.org/2000/svg" mydata:contrastcolor="F1BE48" mydata:template="Contrast" mydata:presentation="2.5" mydata:layouttype="undefined" mydata:specialfontid="undefined" mydata:id1="948" mydata:id2="669" mydata:companyname="To Digital!" mydata:companytagline="" version="1.1" xmlns="http://www.w3.org/2000/svg" xmlns:xlink="http://www.w3.org/1999/xlink" viewBox="0 0 550 470"><g fill="#101820" fill-rule="nonzero" stroke="none" stroke-width="1" stroke-linecap="butt" stroke-linejoin="miter" stroke-miterlimit="10" stroke-dasharray="" stroke-dashoffset="0" font-family="none" font-weight="none" font-size="none" text-anchor="none" style="mix-blend-mode: normal"><g data-paper-data="{&quot;isGlobalGroup&quot;:true,&quot;bounds&quot;:{&quot;x&quot;:65,&quot;y&quot;:176.92325647675437,&quot;width&quot;:420,&quot;height&quot;:116.1534870464913}}"><g data-paper-data="{&quot;isPrimaryText&quot;:true}"><path d="M98.56717,178.58265l-33.56717,0.05224v18.17242l24.55746,-11.82719v81.53894h18.01942v-81.53894l24.55497,11.82719v-18.17242z" data-paper-data="{&quot;glyphName&quot;:&quot;T&quot;,&quot;glyphIndex&quot;:0,&quot;firstGlyphOfWord&quot;:true,&quot;word&quot;:1}" id="path-id-86772"></path><path d="M138.71717,206.15164c-12.34466,0 -24.88461,11.40052 -24.88461,29.63887c0,18.23835 8.92015,31.24602 25.95314,31.24602c16.78545,0 25.65584,-16.42596 25.65584,-32.82704c0.00373,-16.4272 -9.24108,-28.05785 -26.72437,-28.05785zM139.64016,260.17382c-6.39375,0 -7.75708,-14.53769 -7.75708,-23.59342c0,-9.05698 2.24154,-23.40062 8.22231,-23.40062c5.63993,0.12812 7.29435,12.53249 7.29435,23.47525c-0.00249,10.92037 -1.36707,23.51879 -7.75957,23.51879z" data-paper-data="{&quot;glyphName&quot;:&quot;o&quot;,&quot;glyphIndex&quot;:1,&quot;lastGlyphOfWord&quot;:true,&quot;word&quot;:1}" id="path-id-6084"></path><path d="M218.55318,178.63489h-4.36491v6.35145c0,0 15.55148,-2.24776 15.55148,37.58379c0,39.85892 -15.55148,37.61115 -15.55148,37.61115v-75.19619l-18.00823,-6.35021v87.87173c0,0 11.18657,0 22.37314,0c11.18657,0 29.24704,-6.35145 29.24704,-43.93649c0,-37.58503 -14.8723,-43.93524 -29.24704,-43.93524z" data-paper-data="{&quot;glyphName&quot;:&quot;D&quot;,&quot;glyphIndex&quot;:2,&quot;firstGlyphOfWord&quot;:true,&quot;word&quot;:2}" id="path-id-57126"></path><path d="M251.81684,266.51906h17.92488v-55.43528l-17.92488,-4.86994c0,0 0,53.56194 0,60.30523zM266.02986,191.6749c0.27988,3.75042 -3.75042,8.02577 -8.70868,7.77823c0.96155,0.27864 1.98405,0.43289 3.06875,0.43289c6.35394,0 11.49755,-5.14361 11.49755,-11.49755c0,-6.3216 -5.14361,-11.46521 -11.49755,-11.46521c-6.35394,0 -11.46645,5.14361 -11.46645,11.46521c0,2.41818 0.74511,4.67838 2.04625,6.54053c0.12315,0.21644 0.27988,0.40179 0.43413,0.58713c0.68167,0.83716 1.58102,1.33348 2.57243,1.58102c4.70948,1.11704 11.80604,-3.65588 12.05358,-5.42225z" data-paper-data="{&quot;glyphName&quot;:&quot;i&quot;,&quot;glyphIndex&quot;:3,&quot;word&quot;:2}" id="path-id-54944"></path><path d="M307.124,206.83953h-0.00373c0,0 0,2.38086 0,7.67872c-5.71084,-10.17278 -27.3936,-11.97273 -31.73986,4.35745c-5.00802,18.81802 -2.8436,38.95334 4.79655,43.44887c9.83692,5.78671 20.72619,7.29186 26.94081,-8.31436c0,2.22164 0,3.93452 0,4.86746c0,0 0,2.42564 0,8.899c-0.04105,7.64762 -0.62196,18.12142 -7.84291,18.12142c-8.26958,0 -7.89391,-10.33697 -7.89391,-15.23553h-18.0443c0,6.3726 1.85095,22.41419 25.9407,22.41419c25.18315,0 25.79641,-11.2724 25.79641,-50.12996c0,-14.3822 0,-31.76349 0,-31.76349zM304.00051,246.14614c0,0 -5.08639,14.03017 -8.69127,14.03017c-3.29514,0 -4.68833,-10.07824 -2.92197,-29.31172c1.77756,-19.34668 8.88905,-22.5647 11.83216,-11.83714c2.94311,10.72881 -0.21893,27.11869 -0.21893,27.11869z" data-paper-data="{&quot;glyphName&quot;:&quot;g&quot;,&quot;glyphIndex&quot;:4,&quot;word&quot;:2}" id="path-id-58129"></path><path d="M328.69108,266.51906h17.92488v-55.43528l-17.92488,-4.86994c0,0 0,53.56194 0,60.30523zM342.9041,191.6749c0.27988,3.75042 -3.75042,8.02577 -8.70868,7.77823c0.96155,0.27864 1.98405,0.43289 3.06875,0.43289c6.35394,0 11.49755,-5.14361 11.49755,-11.49755c0,-6.3216 -5.14361,-11.46521 -11.49755,-11.46521c-6.35394,0 -11.46645,5.14361 -11.46645,11.46521c0,2.41818 0.74511,4.67838 2.04625,6.54053c0.12315,0.21644 0.27988,0.40179 0.43413,0.58713c0.68167,0.83716 1.58102,1.33348 2.57243,1.58102c4.70948,1.11704 11.80604,-3.65588 12.05358,-5.42225z" data-paper-data="{&quot;glyphName&quot;:&quot;i&quot;,&quot;glyphIndex&quot;:5,&quot;word&quot;:2}" id="path-id-59644"></path><path d="M384.16243,266.5116c-6.6276,0 -15.10616,-7.9897 -15.5067,-17.43353c0.01368,-6.24323 0.02363,-13.66446 0.02363,-21.41657c0,-6.97217 0,-2.82992 0,-13.58485h10.8731l-0.00249,-7.24086h-10.86813c0,-6.06784 0,-22.87444 0,-22.87444l-18.07789,-5.19336c0,0 0,17.8801 0,28.0678h-5.41603l2.11218,7.24086h3.30385c0,18.28935 0,21.60937 0,27.76678c0,18.77946 5.64491,25.29759 18.00823,24.67066c0,0 0.00497,-1.14192 0.00995,-3.17821v3.17075c-0.00497,0.00497 3.30385,0.00497 15.54029,0.00497z" data-paper-data="{&quot;glyphName&quot;:&quot;t&quot;,&quot;glyphIndex&quot;:6,&quot;word&quot;:2}" id="path-id-69440"></path><path d="M379.6582,248.10532c0,20.96254 24.51641,22.556 33.55971,12.52005v-6.79553c0,0 -4.39104,6.35145 -8.78207,6.35145c-4.39104,0 -6.74329,-4.2343 -6.74329,-13.2776c0,-9.0433 3.81634,-13.4194 7.76206,-13.4194c4.19574,0 6.53431,5.44712 7.7633,7.25081v-7.03063c-9.33064,-11.52616 -33.55971,-8.39024 -33.55971,14.40086zM405.4658,206.79723c-12.92432,0 -25.80511,6.88634 -25.80511,16.47323c0,8.39024 0,8.39024 0,8.39024c0,0 6.17606,-9.19008 18.01818,-9.19008c0,-7.49088 2.42564,-9.28835 7.78445,-9.28835c5.35756,0 7.75211,2.19801 7.75211,9.58938c0.00249,0 0.00498,0 0.00747,0c0,10.80469 0,38.35253 0,43.74741h17.92488v-43.2486c0.00249,-11.94909 -12.76013,-16.47323 -25.68197,-16.47323z" data-paper-data="{&quot;glyphName&quot;:&quot;a&quot;,&quot;glyphIndex&quot;:7,&quot;word&quot;:2}" id="path-id-69647"></path><path d="M436.97304,266.51906h17.92488v-82.87864l-17.92488,-4.86994c0,0 0,81.0053 0,87.74859z" data-paper-data="{&quot;glyphName&quot;:&quot;l&quot;,&quot;glyphIndex&quot;:8,&quot;word&quot;:2}" id="path-id-40477"></path><path d="M485,254.65064v-54.73809h-18.01864v54.73809zM485,270.66198v-10.03649h-18.01864v10.03649z" data-paper-data="{&quot;glyphName&quot;:&quot;!&quot;,&quot;glyphIndex&quot;:9,&quot;lastGlyphOfWord&quot;:true,&quot;word&quot;:2}" id="path-id-22582"></path></g></g></g><rect data-path-id="path-id-86772" class="invisible-bbox" x="65" y="179" fill="transparent" width="67" height="88"></rect><rect data-path-id="path-id-57126" class="invisible-bbox" x="196" y="179" fill="transparent" width="52" height="88"></rect><rect data-path-id="path-id-58129" class="invisible-bbox" x="273" y="207" fill="transparent" width="52" height="86"></rect><rect data-path-id="path-id-69440" class="invisible-bbox" x="345" y="179" fill="transparent" width="39" height="88"></rect><rect data-path-id="path-id-6084" class="invisible-bbox" x="114" y="206" fill="transparent" width="52" height="61"></rect><rect data-path-id="path-id-69647" class="invisible-bbox" x="380" y="207" fill="transparent" width="51" height="60"></rect><rect data-path-id="path-id-54944" class="invisible-bbox" x="249" y="177" fill="transparent" width="23" height="90"></rect><rect data-path-id="path-id-59644" class="invisible-bbox" x="326" y="177" fill="transparent" width="23" height="90"></rect><rect data-path-id="path-id-40477" class="invisible-bbox" x="437" y="179" fill="transparent" width="18" height="88"></rect><rect data-path-id="path-id-22582" class="invisible-bbox" x="467" y="200" fill="transparent" width="18" height="71"></rect></svg>